Coordinates
version=1
nRows=32
nColumns=22
inDegrees=yes

Units are S.I. units (second, meters, Newtons, ...)
If the header above contains a line with 'inDegrees', this indicates whether rotational values are in degrees (yes) or radians (no).

endheader
time	pelvis_tilt	pelvis_list	pelvis_rotation	pelvis_tx	pelvis_ty	pelvis_tz	hip_flexion_r	hip_adduction_r	hip_rotation_r	knee_angle_r	ankle_angle_r	subtalar_angle_r	hip_flexion_l	hip_adduction_l	hip_rotation_l	knee_angle_l	ankle_angle_l	subtalar_angle_l	lumbar_extension	lumbar_bending	lumbar_rotation
      1.97000000	     -2.77670400	     -0.56844382	     73.85692457	      0.25315426	      0.91003311	      0.09653786	     25.04288888	     -6.57427115	      4.22383741	     -2.54973286	      1.62413259	     11.09596648	     -8.04818359	      7.50218239	     16.09463847	    -16.04329705	     17.06973082	     -9.63616664	     -6.79055291	     -8.71474334	    -10.53305636
      1.98000000	     -2.93486564	     -0.54670042	     74.25378529	      0.25781489	      0.90830428	      0.08895139	     25.19483372	     -6.49681447	      3.73607273	     -2.31847037	      1.72132868	     10.92968791	     -8.76971526	      7.35307475	     16.50695420	    -15.78842649	     17.26527985	     -9.53120560	     -6.73767546	     -8.89375947	    -10.65624608
      1.99000000	     -3.04514495	     -0.49193398	     74.60157779	      0.26260983	      0.90663378	      0.08124949	     25.32937274	     -6.34951307	      3.41347763	     -2.42975359	      1.73692337	     10.50796786	     -9.52488821	      7.16722591	     16.83015943	    -15.57391934	     17.44201778	     -9.39197786	     -6.72354375	     -9.02329033	    -10.71210444
      2.00000000	     -3.17388470	     -0.53263883	     74.96927398	      0.26735412	      0.90481405	      0.07346762	     25.59899234	     -6.20456842	      3.28878619	     -2.87536523	      1.66180885	     10.15384774	    -10.11910868	      6.98673662	     17.17182439	    -15.47480180	     17.60922380	     -9.28075036	     -6.59266163	     -9.12390217	    -10.82792402
      2.01000000	     -3.28308832	     -0.60423638	     75.32044224	      0.27214832	      0.90299308	      0.06561207	     25.89897126	     -6.02411899	      3.38470348	     -3.56485822	      1.36061986	      9.55020504	    -10.62897093	      6.78826388	     17.41942253	    -15.48654350	     17.75705006	     -9.12816041	     -6.42650947	     -9.18527583	    -10.93735541
      2.02000000	     -3.35417148	     -0.73997651	     75.66824791	      0.27695182	      0.90117432	      0.05770057	     26.24865839	     -5.79010170	      3.70170405	     -4.44805499	      0.78718074	      9.01705264	    -11.01419065	      6.55090281	     17.63028054	    -15.62946695	     17.88084496	     -8.98472153	     -6.19475466	     -9.17483381	    -11.03411162
      2.03000000	     -3.37344445	     -0.93758107	     76.03075953	      0.28171689	      0.89942024	      0.04973460	     26.64321121	     -5.50057648	      4.16464032	     -5.49041780	     -0.05041332	      8.48322657	    -11.27934797	      6.26029906	     17.82311997	    -15.89905798	     17.96429046	     -8.82616451	     -5.90560454	     -9.07143807	    -11.14937338
      2.04000000	     -3.34442046	     -1.20914794	     76.39128527	      0.28646763	      0.89775144	      0.04176802	     27.14347086	     -5.14520475	      4.66653992	     -6.72697767	     -1.07051970	      7.90449224	    -11.39796418	      5.92346753	     17.99747639	    -16.30985383	     17.99953876	     -8.59812448	     -5.54783988	     -8.88758623	    -11.23993234
      2.05000000	     -3.22284832	     -1.52602131	     76.75008627	      0.29121011	      0.89630320	      0.03377148	     27.67710195	     -4.69936141	      5.14526265	     -8.07070862	     -2.28453104	      7.44666415	    -11.42171312	      5.49946791	     18.14536992	    -16.83708260	     17.96731342	     -8.38074223	     -5.16224308	     -8.57808340	    -11.33911765
      2.06000000	     -2.98538996	     -1.85370364	     77.09694197	      0.29594076	      0.89518823	      0.02567769	     28.20939233	     -4.15524364	      5.48372351	     -9.51642383	     -3.52029432	      7.12231557	    -11.41868620	      4.97432327	     18.28072344	    -17.43016310	     17.80812554	     -8.20412571	     -4.78168976	     -8.11911677	    -11.44469435
      2.07000000	     -2.68693486	     -2.19549675	     77.40012240	      0.30065743	      0.89435288	      0.01753244	     28.83227961	     -3.56344696	      5.57407502	    -11.16670772	     -4.54069035	      6.90183191	    -11.34239295	      4.41910949	     18.35829429	    -18.13749217	     17.52392105	     -7.97278079	     -4.38962009	     -7.57552539	    -11.48954549
      2.08000000	     -2.32417751	     -2.48866187	     77.64776406	      0.30537481	      0.89392115	      0.00925624	     29.42922870	     -2.94639136	      5.43651912	    -12.92440688	     -5.25708338	      6.89351123	    -11.29743443	      3.84255437	     18.39607097	    -18.89273775	     17.06233475	     -7.72615666	     -4.04795462	     -6.95333795	    -11.48931184
      2.09000000	     -1.92613949	     -2.73092256	     77.81851663	      0.31013054	      0.89389631	      0.00083001	     29.96512827	     -2.32741793	      5.15498305	    -14.70583728	     -5.65628206	      7.17951891	    -11.30430006	      3.27556582	     18.41804508	    -19.65156343	     16.40390950	     -7.39854017	     -3.74356323	     -6.28935217	    -11.40421387
      2.10000000	     -1.43016345	     -2.84924197	     77.96431254	      0.31484892	      0.89444023	     -0.00778273	     30.24461949	     -1.68737976	      4.73637050	    -16.33691913	     -5.78420035	      7.67941603	    -11.42940232	      2.65698387	     18.36992358	    -20.45060915	     15.54290478	     -7.15445640	     -3.58566139	     -5.51749231	    -11.32650564
      2.11000000	     -0.89513718	     -2.88472487	     78.08848313	      0.31955147	      0.89544793	     -0.01648252	     30.31030039	     -1.05628865	      4.27825000	    -17.77615905	     -5.65053296	      8.33717524	    -11.60754905	      2.03357920	     18.29233193	    -21.29124724	     14.48359591	     -6.89182367	     -3.51982040	     -4.71313984	    -11.24202807
      2.12000000	     -0.33520196	     -2.85658043	     78.23500368	      0.32413583	      0.89686634	     -0.02521957	     30.15729530	     -0.45051243	      3.79812821	    -18.97172278	     -5.31223141	      8.99685701	    -11.78970022	      1.40739622	     18.19138143	    -22.20091980	     13.24600399	     -6.63832336	     -3.52987760	     -3.88099085	    -11.20603682
      2.13000000	      0.20967383	     -2.78274738	     78.42614526	      0.32855244	      0.89862947	     -0.03389637	     29.80364734	      0.10030017	      3.32281021	    -19.88916047	     -4.85673230	      9.58126232	    -11.91902314	      0.81134480	     18.08985406	    -23.21200831	     11.81137555	     -6.37619888	     -3.59699345	     -3.07157358	    -11.21046174
      2.14000000	      0.72285216	     -2.68838764	     78.67339022	      0.33281066	      0.90064775	     -0.04249773	     29.29968806	      0.59506087	      2.84263365	    -20.56201379	     -4.35746301	     10.03361095	    -11.98716319	      0.23860660	     17.98822582	    -24.26872441	     10.20289510	     -6.09848440	     -3.68303333	     -2.30304841	    -11.29654426
      2.15000000	      1.16904596	     -2.59527625	     79.02977575	      0.33678360	      0.90282350	     -0.05092159	     28.67357387	      0.98354415	      2.31406846	    -20.97291533	     -3.83791696	     10.26420871	    -11.90105889	     -0.27782201	     17.92965823	    -25.46390680	      8.47902331	     -5.91112530	     -3.76954086	     -1.61643843	    -11.48084565
      2.16000000	      1.55007567	     -2.48356598	     79.44798297	      0.34058441	      0.90514203	     -0.05917752	     27.91781282	      1.30272568	      1.80823689	    -21.14243805	     -3.32929276	     10.30473288	    -11.73690127	     -0.74962447	     17.86248980	    -26.69426920	      6.60703919	     -5.66642156	     -3.87046008	     -1.01952396	    -11.71998084
      2.17000000	      1.84589054	     -2.40159769	     79.96399300	      0.34412075	      0.90746061	     -0.06722695	     27.12038135	      1.51806852	      1.22302137	    -21.12524102	     -2.85119572	     10.10972614	    -11.41558902	     -1.16669911	     17.82233709	    -27.99221877	      4.64290787	     -5.51932166	     -3.92859829	     -0.52418643	    -12.02669006
      2.18000000	      2.04741284	     -2.35738906	     80.56603257	      0.34740095	      0.90972632	     -0.07502343	     26.31094285	      1.62784169	      0.56794024	    -20.94804402	     -2.45380606	      9.85894283	    -10.92512878	     -1.51831310	     17.79815303	    -29.35536066	      2.58919907	     -5.51317278	     -3.93765649	     -0.14369542	    -12.38105370
      2.19000000	      2.19122254	     -2.29787969	     81.25129945	      0.35046203	      0.91198230	     -0.08254832	     25.43098580	      1.67480761	     -0.10904588	    -20.62636421	     -2.06634918	      9.27584697	    -10.33952383	     -1.83796205	     17.78487089	    -30.76628309	      0.48913891	     -5.47326016	     -3.97462603	      0.15143208	    -12.81962352
      2.20000000	      2.26731185	     -2.27794644	     81.95280102	      0.35339879	      0.91411567	     -0.08984597	     24.57007288	      1.67479015	     -0.79877258	    -20.20714172	     -1.68119995	      8.60989018	     -9.62827787	     -2.11419430	     17.71190457	    -32.18867738	     -1.71459509	     -5.50844764	     -3.95851302	      0.35523443	    -13.18829054
      2.21000000	      2.29777873	     -2.26458775	     82.70271363	      0.35612448	      0.91615104	     -0.09683341	     23.72893928	      1.62298218	     -1.53586702	    -19.75607213	     -1.40315343	      8.04136670	     -8.79653017	     -2.35840175	     17.61062438	    -33.67741749	     -3.97390517	     -5.60096207	     -3.95408538	      0.49576064	    -13.56731807
      2.22000000	      2.29846720	     -2.27537525	     83.44676976	      0.35875333	      0.91804677	     -0.10357551	     22.92181120	      1.56375193	     -2.23874814	    -19.27460939	     -1.09791969	      7.39990944	     -7.85153143	     -2.58866443	     17.40231040	    -35.21086260	     -6.30738458	     -5.74321242	     -3.92906035	      0.59001455	    -13.86929402
      2.23000000	      2.28538053	     -2.29329743	     84.18553387	      0.36128396	      0.91981111	     -0.11002594	     22.16184897	      1.50349070	     -2.92953382	    -18.81783214	     -0.84217229	      6.83534200	     -6.78915013	     -2.81901913	     17.06586587	    -36.83100118	     -8.69592157	     -5.93838610	     -3.91629698	      0.65446721	    -14.11780589
      2.24000000	      2.27280813	     -2.32873841	     84.90070559	      0.36374130	      0.92140393	     -0.11622190	     21.46283840	      1.46182090	     -3.57675833	    -18.39552380	     -0.56673844	      6.34061578	     -5.60106388	     -3.07075757	     16.55642431	    -38.54537060	    -11.14392006	     -6.22150925	     -3.89761783	      0.71074430	    -14.27511778
      2.25000000	      2.28251647	     -2.37179480	     85.59057710	      0.36613274	      0.92281906	     -0.12213337	     20.83475766	      1.45753958	     -4.18254888	    -18.04748259	     -0.30924119	      5.94540662	     -4.28326359	     -3.36800710	     15.87519955	    -40.38624010	    -13.64089013	     -6.58912201	     -3.89476918	      0.78738108	    -14.35200419
      2.26000000	      2.32232574	     -2.43012393	     86.24299522	      0.36849807	      0.92403341	     -0.12778554	     20.28238305	      1.50301087	     -4.73318807	    -17.76781072	     -0.05491437	      5.62894607	     -2.83502348	     -3.73072829	     15.01355340	    -42.34653635	    -16.16070912	     -7.05077506	     -3.89205762	      0.89250166	    -14.33316770
      2.27000000	      2.40599257	     -2.49543366	     86.85008610	      0.37087538	      0.92505117	     -0.13321220	     19.78991496	      1.61403213	     -5.23409183	    -17.54771529	      0.20853024	      5.38743240	     -1.28110676	     -4.18213908	     13.99166316	    -44.40804093	    -18.67185585	     -7.55593404	     -3.89475149	      1.04067751	    -14.21801511
      2.28000000	      2.53440538	     -2.56168741	     87.40932988	      0.37326631	      0.92589235	     -0.13844277	     19.34238937	      1.79166523	     -5.67354952	    -17.37232695	      0.47603284	      5.19942351	      0.34091484	     -4.71943386	     12.87335489	    -46.53025164	    -21.07429178	     -8.04411732	     -3.90349415	      1.23766841	    -13.99294029
